Coordinates
version=1
nRows=43
nColumns=12
inDegrees=yes

Units are S.I. units (second, meters, Newtons, ...)
Angles are in degrees

endheader
time	SC_y	SC_z	SC_x	AC_y	AC_z	AC_x	GH_y	GH_z	GH_yy	EL_x	PS_y
       0.0              -42.01          6.767          8.111          43.13        -0.7768          3.108          -5.06           80.5          149.6          90.73          26.49
   0.02786              -42.01          6.768          8.115          43.13        -0.7755          3.106         -5.059          80.49          149.6          90.72           26.5
   0.05571              -42.01          6.768          8.119          43.13        -0.7741          3.104         -5.058          80.48          149.6          90.71          26.52
   0.08357              -42.01          6.768          8.123          43.13        -0.7727          3.102         -5.057          80.47          149.5          90.69          26.54
    0.1114              -42.02          6.769          8.128          43.13        -0.7711            3.1         -5.056          80.46          149.5          90.68          26.56
    0.1393              -42.02          6.769          8.133          43.13        -0.7695          3.097         -5.055          80.45          149.5          90.67          26.58
    0.1671              -42.02           6.77          8.138          43.12        -0.7677          3.095         -5.054          80.44          149.4          90.65           26.6
     0.195              -42.02           6.77          8.144          43.12        -0.7658          3.092         -5.052          80.43          149.4          90.64          26.62
    0.2229              -42.02          6.771          8.149          43.12        -0.7638          3.089         -5.051          80.41          149.3          90.62          26.64
    0.2507              -42.02          6.771          8.156          43.12        -0.7617          3.086          -5.05           80.4          149.3          90.61          26.67
    0.2786              -42.03          6.772          8.163          43.12        -0.7594          3.083         -5.048          80.38          149.2          90.59           26.7
    0.3064              -42.03          6.772           8.17          43.11        -0.7569          3.079         -5.046          80.37          149.2          90.57          26.73
    0.3343              -42.03          6.773          8.178          43.11        -0.7542          3.075         -5.045          80.35          149.1          90.55          26.76
    0.3621              -42.03          6.774          8.186          43.11        -0.7513          3.071         -5.043          80.33          149.0          90.53          26.79
      0.39              -42.04          6.775          8.196           43.1        -0.7481          3.067          -5.04          80.31          148.9           90.5          26.83
    0.4179              -42.04          6.776          8.206           43.1        -0.7447          3.062         -5.038          80.29          148.8          90.47          26.87
    0.4457              -42.04          6.776          8.217          43.09         -0.741          3.056         -5.036          80.26          148.8          90.45          26.92
    0.4736              -42.05          6.778          8.228          43.09         -0.737           3.05         -5.033          80.24          148.7          90.41          26.97
    0.5014              -42.05          6.779          8.241          43.08        -0.7326          3.044          -5.03          80.21          148.5          90.38          27.02
    0.5293              -42.06           6.78          8.256          43.08        -0.7277          3.037         -5.027          80.18          148.4          90.34          27.08
    0.5571              -42.06          6.781          8.271          43.07        -0.7224          3.029         -5.023          80.15          148.3           90.3          27.14
     0.585              -42.07          6.783          8.288          43.07        -0.7166          3.021         -5.019          80.11          148.2          90.25          27.21
    0.6129              -42.07          6.784          8.307          43.06        -0.7102          3.012         -5.015          80.07          148.0           90.2          27.29
    0.6407              -42.08          6.786          8.328          43.05         -0.703          3.001          -5.01          80.02          147.8          90.15          27.37
    0.6686              -42.09          6.788          8.351          43.04        -0.6951           2.99         -5.005          79.97          147.6          90.09          27.47
    0.6964              -42.09           6.79          8.377          43.03        -0.6862          2.977         -4.999          79.91          147.4          90.02          27.58
    0.7243               -42.1          6.793          8.407          43.02        -0.6763          2.963         -4.992          79.85          147.1          89.94          27.69
    0.7522              -42.11          6.796          8.439          43.01        -0.6652          2.947         -4.985          79.78          146.9          89.85          27.83
      0.78              -42.12          6.799          8.476          42.99        -0.6525          2.929         -4.976          79.69          146.6          89.75          27.98
    0.8079              -42.14          6.803          8.519          42.98        -0.6382          2.908         -4.967           79.6          146.2          89.64          28.15
    0.8357              -42.15          6.807          8.567          42.96        -0.6219          2.884         -4.956           79.5          145.8          89.51          28.35
    0.8636              -42.17          6.812          8.622          42.94        -0.6031          2.857         -4.943          79.38          145.3          89.36          28.57
    0.8914              -42.19          6.817          8.685          42.91        -0.5815          2.826         -4.928          79.24          144.8           89.2          28.83
    0.9193              -42.21          6.824          8.759          42.88        -0.5563           2.79         -4.911          79.07          144.2           89.0          29.13
    0.9472              -42.24          6.831          8.846          42.85        -0.5269          2.747         -4.892          78.88          143.4          88.77          29.49
     0.975              -42.27           6.84          8.948          42.81        -0.4922          2.697         -4.868          78.66          142.6           88.5           29.9
     1.003              -42.31           6.85          9.069          42.76         -0.451          2.638         -4.841          78.39          141.5          88.17           30.4
     1.031              -42.35          6.863          9.214          42.71        -0.4015          2.566         -4.807          78.08          140.3          87.78          30.99
     1.059              -42.41          6.878           9.39          42.64        -0.3417           2.48         -4.767          77.69          138.8          87.32          31.71
     1.086              -42.48          6.897          9.604          42.56        -0.2687          2.375         -4.718          77.22          137.0          86.74          32.59
     1.114              -42.56           6.92          9.869          42.46        -0.1785          2.245         -4.657          76.64          134.8          86.04          33.67
     1.142              -42.66          6.948           10.2          42.33       -0.06612          2.082         -4.582          75.91          132.0          85.16          35.02
      1.17              -42.79          6.984          10.62          42.17         0.0755          1.878         -4.486           75.0          128.5          84.05          36.72
